<svg width="250" height="222" viewBox="0 0 250 222" fill="none" xmlns="http://www.w3.org/2000/svg">
<path d="M244.837 132.432C246.574 133.434 238.051 139.363 231.79 142.982C162.572 178.98 60.0036 218.04 25.2743 205.851C24.6077 206.069 24.4055 205.35 23.7389 205.569C22.6679 204.349 21.5968 203.129 22.0611 202.192C22.3232 200.536 23.6338 192.256 66.4137 173.546C87.8037 164.191 110.669 157.494 133.273 152.452C174.075 142.24 239.219 127.989 244.837 132.432Z" fill="#D0103A"/>
<path d="M173.938 12.9176C175.942 12.9807 171.227 22.2307 167.415 28.3764C123.38 92.7801 51.3865 175.624 15.0155 181.268C14.5308 181.775 14.0132 181.236 13.5285 181.743C12.0086 181.173 10.4886 180.603 10.4558 179.558C9.90529 177.974 7.15292 170.056 36.0388 133.371C50.4818 115.028 67.4798 98.3324 85.0284 83.2203C116.182 54.9606 166.889 11.6518 173.938 12.9176Z" fill="#FCD331"/>
</svg>
