<svg width="47" height="46" viewBox="0 0 47 46" fill="none" xmlns="http://www.w3.org/2000/svg">
<path opacity="0.8" d="M20.1879 36.2437H26.8095C33.0525 36.2437 36.174 36.2437 38.1134 34.3042C40.0528 32.3648 40.0528 29.2433 40.0528 23.0003C40.0528 22.2687 40.0501 20.3384 40.047 19.6895H6.94498C6.94186 20.3384 6.94458 22.2687 6.94458 23.0003C6.94458 29.2433 6.94458 32.3648 8.88402 34.3042C10.8235 36.2437 13.9449 36.2437 20.1879 36.2437Z" fill="#FCD331"/>
<path d="M20.1801 9.75684H26.8188C33.0779 9.75684 36.2074 9.75684 38.1518 11.6039C39.5518 12.9339 39.9438 14.8474 40.0536 18.0339V19.6894H6.94531V18.0339C7.05507 14.8474 7.44706 12.9339 8.84707 11.6039C10.7915 9.75684 13.921 9.75684 20.1801 9.75684Z" fill="#D0103A"/>
<path d="M24.326 28.3799C23.6403 28.3799 23.0844 28.9358 23.0844 29.6214C23.0844 30.3071 23.6403 30.863 24.326 30.863H26.8091C27.4948 30.863 28.0506 30.3071 28.0506 29.6214C28.0506 28.9358 27.4948 28.3799 26.8091 28.3799H24.326Z" fill="#D0103A"/>
<path d="M13.5658 28.3799C12.8801 28.3799 12.3242 28.9358 12.3242 29.6214C12.3242 30.3071 12.8801 30.863 13.5658 30.863H20.1874C20.8731 30.863 21.429 30.3071 21.429 29.6214C21.429 28.9358 20.8731 28.3799 20.1874 28.3799H13.5658Z" fill="#D0103A"/>
</svg>
