<svg width="23" height="22" viewBox="0 0 23 22" fill="none" xmlns="http://www.w3.org/2000/svg">
<path d="M15.1951 9.19463C15.4636 8.92615 15.4636 8.49084 15.1951 8.22236C14.9266 7.95387 14.4913 7.95387 14.2228 8.22236L10.1257 12.3196L8.77845 10.9724C8.50997 10.7039 8.07467 10.7039 7.80618 10.9724C7.5377 11.2408 7.5377 11.6761 7.80618 11.9446L9.63951 13.778C9.908 14.0464 10.3433 14.0464 10.6118 13.778L15.1951 9.19463Z" />
<path fill-rule="evenodd" clip-rule="evenodd" d="M11.5007 1.146C6.05835 1.146 1.64648 5.55786 1.64648 11.0002C1.64648 16.4425 6.05835 20.8543 11.5007 20.8543C16.943 20.8543 21.3548 16.4425 21.3548 11.0002C21.3548 5.55786 16.943 1.146 11.5007 1.146ZM3.02148 11.0002C3.02148 6.31725 6.81774 2.521 11.5007 2.521C16.1836 2.521 19.9798 6.31725 19.9798 11.0002C19.9798 15.6831 16.1836 19.4793 11.5007 19.4793C6.81774 19.4793 3.02148 15.6831 3.02148 11.0002Z" />
</svg>
