<svg width="42" height="46" viewBox="0 0 42 46" fill="none" xmlns="http://www.w3.org/2000/svg">
<g id="Group 7">
<path id="Vector" d="M20.9994 45.4998C31.8807 45.4998 40.7019 36.7613 40.7019 25.9818C40.7019 15.2024 31.8807 6.46387 20.9994 6.46387C10.118 6.46387 1.29688 15.2024 1.29688 25.9818C1.29688 36.7613 10.118 45.4998 20.9994 45.4998Z" fill="#FCD331"/>
<path id="Vector_2" d="M20.9993 15.6807C21.9061 15.6807 22.6412 16.4089 22.6412 17.3072V25.3081L27.6332 30.2534C28.2744 30.8886 28.2744 31.9184 27.6332 32.5536C26.992 33.1888 25.9524 33.1888 25.3112 32.5536L19.8383 27.1319C19.5304 26.8269 19.3574 26.4132 19.3574 25.9818V17.3072C19.3574 16.4089 20.0925 15.6807 20.9993 15.6807Z" fill="#D0103A"/>
<g id="Vector_3">
<path fill-rule="evenodd" clip-rule="evenodd" d="M12.5411 1.26468C13.0217 2.02643 12.7879 3.02989 12.019 3.50599L3.26228 8.92765C2.49333 9.40374 1.48038 9.17216 0.999785 8.41041C0.519194 7.64866 0.752955 6.6452 1.52191 6.16911L10.2786 0.747446C11.0476 0.271355 12.0605 0.502927 12.5411 1.26468Z" fill="#D0103A"/>
<path fill-rule="evenodd" clip-rule="evenodd" d="M29.4589 1.26467C29.9395 0.502925 30.9525 0.271355 31.7214 0.747448L40.4781 6.16911C41.247 6.6452 41.4808 7.64867 41.0002 8.41042C40.5196 9.17217 39.5067 9.40374 38.7377 8.92764L29.9811 3.50598C29.2121 3.02989 28.9783 2.02642 29.4589 1.26467Z" fill="#D0103A"/>
</g>
</g>
</svg>
