<svg width="54" height="55" viewBox="0 0 54 55" fill="none" xmlns="http://www.w3.org/2000/svg">
<path fill-rule="evenodd" clip-rule="evenodd" d="M15.4788 24.0562L18.7022 26.7424C22.8157 30.1703 24.8724 31.8842 27.305 31.8842C29.7376 31.8842 31.7943 30.1703 35.9077 26.7424L39.1311 24.0562C39.9237 23.3957 40.32 23.0655 40.5314 22.6141C40.7429 22.1626 40.7429 21.6468 40.7429 20.6151V15.9942C40.7429 15.276 40.7429 14.6068 40.7387 13.9822C40.7125 10.0156 40.5198 7.8527 39.1029 6.43584C37.463 4.7959 34.8235 4.7959 29.5446 4.7959H25.0653C19.7864 4.7959 17.147 4.7959 15.507 6.43584C14.0902 7.8527 13.8933 10.0156 13.8671 13.9822C13.8629 14.6068 13.8671 15.276 13.8671 15.9942V20.6151C13.8671 21.6468 13.8671 22.1626 14.0785 22.6141C14.29 23.0655 14.6862 23.3957 15.4788 24.0562Z" fill="#D0103A"/>
<path d="M18.7016 26.7425L15.4782 24.0563C14.6856 23.3958 14.2893 23.0656 14.0779 22.6141C13.8664 22.1627 13.8664 21.6469 13.8664 20.6152V15.9942C13.8664 15.7494 13.866 15.5103 13.8655 15.2766C13.8646 14.825 13.8637 14.3939 13.8665 13.9823C10.9548 14.2687 8.99496 14.9156 7.53212 16.3785C4.9082 19.0024 4.9082 23.2274 4.9082 31.6736C4.9082 40.1199 4.9082 44.343 7.53212 46.9669C10.156 49.5908 14.3792 49.5908 22.8254 49.5908H31.784C40.2302 49.5908 44.4534 49.5908 47.0773 46.9669C49.7012 44.343 49.7012 40.1199 49.7012 31.6736C49.7012 23.2274 49.7012 19.0024 47.0773 16.3785C45.6136 14.9148 43.6524 14.2676 40.7381 13.9814C40.7422 14.606 40.7423 15.2761 40.7423 15.9942V20.6152C40.7423 21.6469 40.7423 22.1627 40.5308 22.6141C40.3194 23.0656 39.9231 23.3958 39.1305 24.0563L35.9071 26.7425C31.7937 30.1703 29.7369 31.8843 27.3044 31.8843C24.8718 31.8843 22.815 30.1703 18.7016 26.7425Z" fill="#FCD331"/>
<path d="M21.1465 13.754C21.1465 12.8263 21.8985 12.0742 22.8262 12.0742H31.7848C32.7125 12.0742 33.4646 12.8263 33.4646 13.754C33.4646 14.6817 32.7125 15.4337 31.7848 15.4337H22.8262C21.8985 15.4337 21.1465 14.6817 21.1465 13.754Z" fill="#FCD331"/>
<path d="M23.3848 20.4737C23.3848 19.546 24.1368 18.7939 25.0645 18.7939H29.5438C30.4715 18.7939 31.2235 19.546 31.2235 20.4737C31.2235 21.4014 30.4715 22.1534 29.5438 22.1534H25.0645C24.1368 22.1534 23.3848 21.4014 23.3848 20.4737Z" fill="#FCD331"/>
</svg>
