<svg width="47" height="46" viewBox="0 0 47 46" fill="none" xmlns="http://www.w3.org/2000/svg">
<path d="M8.49551 6.07901C6.25 8.32453 6.25 11.9386 6.25 19.1668V26.8335C6.25 34.0617 6.25 37.6758 8.49551 39.9213C10.741 42.1668 14.3551 42.1668 21.5833 42.1668H25.4167C32.6449 42.1668 36.259 42.1668 38.5045 39.9213C40.75 37.6758 40.75 34.0617 40.75 26.8335V19.1668C40.75 11.9386 40.75 8.32453 38.5045 6.07901C36.259 3.8335 32.6449 3.8335 25.4167 3.8335H21.5833C14.3551 3.8335 10.741 3.8335 8.49551 6.07901Z" fill="#FCD331"/>
<path d="M12 23C12 20.2894 12 18.9341 12.8421 18.0921C13.6841 17.25 15.0394 17.25 17.75 17.25H29.25C31.9606 17.25 33.3159 17.25 34.1579 18.0921C35 18.9341 35 20.2894 35 23V30.6667C35 33.3772 35 34.7325 34.1579 35.5746C33.3159 36.4167 31.9606 36.4167 29.25 36.4167H17.75C15.0394 36.4167 13.6841 36.4167 12.8421 35.5746C12 34.7325 12 33.3772 12 30.6667V23Z" fill="#D0103A"/>
<path d="M13.9167 10.0625C13.1228 10.0625 12.4792 10.7061 12.4792 11.5C12.4792 12.2939 13.1228 12.9375 13.9167 12.9375H23.5C24.2939 12.9375 24.9375 12.2939 24.9375 11.5C24.9375 10.7061 24.2939 10.0625 23.5 10.0625H13.9167Z" fill="#D0103A"/>
<path d="M19.772 28.79C19.4944 28.79 19.2595 28.7046 19.0673 28.5337C18.8857 28.3522 18.7949 28.1279 18.7949 27.861C18.7949 27.594 18.8857 27.3751 19.0672 27.2042C19.2595 27.0334 19.4944 26.9479 19.772 26.9479H24.6414C24.9191 26.9479 25.1487 27.0334 25.3302 27.2042C25.5224 27.3751 25.6185 27.594 25.6185 27.861C25.6185 28.1279 25.5224 28.3522 25.3302 28.5337C25.1487 28.7046 24.9191 28.79 24.6415 28.79H19.772ZM19.772 26.3553C19.4944 26.3553 19.2595 26.2698 19.0672 26.099C18.8857 25.9175 18.7949 25.6932 18.7949 25.4262C18.7949 25.1593 18.8857 24.9404 19.0672 24.7695C19.2595 24.5986 19.4944 24.5132 19.772 24.5132H24.6414C24.9191 24.5132 25.1487 24.5986 25.3302 24.7695C25.5224 24.9404 25.6185 25.1593 25.6185 25.4262C25.6185 25.6932 25.5224 25.9175 25.3302 26.099C25.1487 26.2698 24.9191 26.3553 24.6414 26.3553H19.772ZM25.6346 32.362C24.9084 32.362 24.2197 32.2392 23.5683 31.9936C22.9169 31.748 22.3349 31.3849 21.8223 30.9044C21.3204 30.4238 20.92 29.8258 20.621 29.1104C20.3327 28.3842 20.1885 27.5459 20.1885 26.5955C20.1885 25.7733 20.322 25.0151 20.5889 24.321C20.8559 23.6269 21.235 23.0289 21.7262 22.527C22.2174 22.0144 22.794 21.6193 23.4561 21.3417C24.1182 21.0533 24.8443 20.9092 25.6345 20.9092C26.0403 20.9092 26.4408 20.9626 26.8359 21.0694C27.2416 21.1761 27.6154 21.331 27.9571 21.5339C28.2348 21.6727 28.3949 21.8916 28.4376 22.1906C28.491 22.4896 28.4163 22.7619 28.2134 23.0075C28.0746 23.1997 27.893 23.3065 27.6688 23.3279C27.4552 23.3492 27.2363 23.3065 27.0121 23.1997C26.8092 23.0823 26.5903 22.9915 26.3553 22.9274C26.1204 22.8634 25.8801 22.8313 25.6345 22.8313C24.9404 22.8313 24.3264 22.9915 23.7925 23.3119C23.2586 23.6322 22.8421 24.0754 22.5431 24.6414C22.2548 25.1966 22.1106 25.848 22.1106 26.5955C22.1106 27.4605 22.2655 28.1813 22.5752 28.758C22.8955 29.3239 23.3227 29.7457 23.8566 30.0234C24.3905 30.301 24.9832 30.4399 25.6346 30.4399C25.8802 30.4399 26.1151 30.4132 26.3393 30.3598C26.5743 30.3064 26.7985 30.2103 27.0121 30.0714C27.2363 29.9647 27.4552 29.9273 27.6688 29.9593C27.8931 29.9913 28.0799 30.1035 28.2294 30.2957C28.443 30.5627 28.5178 30.8403 28.4537 31.1286C28.4003 31.4063 28.2401 31.6092 27.9732 31.7373C27.7276 31.8761 27.4766 31.9936 27.2203 32.0897C26.964 32.1751 26.7024 32.2392 26.4355 32.2819C26.1792 32.3353 25.9122 32.362 25.6346 32.362Z" fill="#FCD331"/>
</svg>
