<svg width="47" height="46" viewBox="0 0 47 46" fill="none" xmlns="http://www.w3.org/2000/svg">
<path fill-rule="evenodd" clip-rule="evenodd" d="M39.2413 20.7054L38.3168 24.1559C37.2375 28.1837 36.6979 30.1976 35.4746 31.5037C34.5087 32.5351 33.2586 33.2568 31.8825 33.5777C31.7105 33.6178 31.536 33.6486 31.3571 33.6707C29.7227 33.8723 27.7284 33.3379 24.098 32.3652C20.0702 31.2859 18.0563 30.7463 16.7502 29.5229C15.7189 28.557 14.9971 27.3069 14.6763 25.9308C14.2699 24.188 14.8095 22.174 15.8888 18.1462L16.8133 14.6957C16.9685 14.1166 17.1126 13.5788 17.2491 13.079C18.0619 10.1033 18.6081 8.46616 19.6555 7.34785C20.6214 6.31653 21.8715 5.5948 23.2476 5.27393C24.9904 4.86756 27.0043 5.40718 31.0321 6.48643C35.0599 7.56568 37.0738 8.10531 38.3799 9.32866C39.4112 10.2946 40.133 11.5447 40.4538 12.9208C40.8602 14.6636 40.3206 16.6775 39.2413 20.7054Z" fill="#FCD331"/>
<path d="M22.7471 20.0513C22.476 19.9913 22.2651 19.8571 22.1144 19.6487C21.9764 19.4323 21.9362 19.1937 21.9939 18.933C22.0516 18.6724 22.1875 18.4783 22.4017 18.3507C22.6263 18.2254 22.8741 18.1927 23.1452 18.2527L27.8995 19.305C28.1706 19.365 28.3763 19.498 28.5166 19.7041C28.6674 19.9124 28.7139 20.1469 28.6562 20.4076C28.5986 20.6682 28.4563 20.8664 28.2294 21.0021C28.0152 21.1297 27.7726 21.1635 27.5015 21.1035L22.7471 20.0513ZM23.2732 17.6741C23.0022 17.6141 22.7912 17.4799 22.6405 17.2715C22.5025 17.0551 22.4623 16.8165 22.52 16.5558C22.5777 16.2952 22.7136 16.1011 22.9278 15.9735C23.1524 15.8482 23.4002 15.8155 23.6713 15.8755L28.4257 16.9278C28.6967 16.9878 28.9024 17.1208 29.0428 17.3269C29.1935 17.5352 29.2401 17.7697 29.1824 18.0304C29.1247 18.291 28.9824 18.4892 28.7555 18.6249C28.5413 18.7525 28.2987 18.7863 28.0276 18.7263L23.2732 17.6741ZM27.6993 24.8057C26.9903 24.6488 26.3443 24.3801 25.7614 23.9995C25.1785 23.6189 24.6887 23.1387 24.2921 22.5587C23.9059 21.9811 23.6441 21.3107 23.5068 20.5475C23.3822 19.7762 23.4226 18.9266 23.6279 17.9987C23.8056 17.1958 24.0998 16.4844 24.5104 15.8644C24.9211 15.2444 25.4204 14.7424 26.0085 14.3585C26.5989 13.9642 27.2473 13.703 27.9537 13.575C28.6624 13.4366 29.4026 13.4527 30.1741 13.6235C30.5703 13.7112 30.9497 13.8499 31.3124 14.0395C31.6856 14.2315 32.017 14.4634 32.3068 14.7353C32.5479 14.9309 32.657 15.1792 32.6341 15.4804C32.6216 15.7839 32.4898 16.0336 32.2386 16.2296C32.0615 16.3872 31.8612 16.4523 31.6376 16.4247C31.4245 16.3994 31.22 16.3103 31.0241 16.1576C30.8514 15.9991 30.6573 15.8632 30.4417 15.7498C30.2262 15.6365 29.9985 15.5533 29.7587 15.5002C29.081 15.3503 28.4469 15.374 27.8564 15.5714C27.2658 15.7688 26.7634 16.1115 26.3492 16.5995C25.9477 17.0793 25.6662 17.6842 25.5047 18.414C25.3178 19.2586 25.3132 19.9958 25.4909 20.6257C25.6814 21.2476 26.0073 21.7517 26.4686 22.1382C26.93 22.5246 27.4786 22.7882 28.1146 22.929C28.3544 22.9821 28.5896 23.0068 28.82 23.0031C29.061 23.0017 29.3007 22.9564 29.5392 22.867C29.7812 22.8112 30.003 22.822 30.2046 22.8994C30.4167 22.9791 30.5749 23.129 30.6793 23.349C30.8302 23.6558 30.8432 23.943 30.7183 24.2107C30.6062 24.4702 30.4059 24.6337 30.1176 24.7012C29.8478 24.7836 29.5774 24.8441 29.3064 24.8825C29.0377 24.9106 28.7684 24.9166 28.4985 24.9006C28.2368 24.8974 27.9703 24.8657 27.6993 24.8057Z" fill="#D0103A"/>
<path d="M31.3576 33.6704C30.9852 34.8106 30.3305 35.8421 29.4502 36.6665C28.1441 37.8899 26.1302 38.4295 22.1024 39.5087C18.0746 40.588 16.0608 41.1276 14.3179 40.7213C12.9418 40.4004 11.6918 39.6787 10.7258 38.6473C9.50249 37.3412 8.96287 35.3273 7.88363 31.2994L6.95908 27.849C5.87984 23.8211 5.34022 21.8072 5.74659 20.0644C6.06745 18.6883 6.78917 17.4382 7.82049 16.4723C9.12663 15.2489 11.1405 14.7093 15.1683 13.63C15.9303 13.4259 16.6202 13.241 17.2499 13.0782C17.2498 13.0784 17.2499 13.078 17.2499 13.0782C17.1134 13.5779 16.9693 14.1163 16.8141 14.6954L15.8895 18.1459C14.8103 22.1737 14.2707 24.1877 14.677 25.9305C14.9979 27.3066 15.7196 28.5567 16.7509 29.5226C18.0571 30.746 20.071 31.2856 24.0988 32.3649C27.729 33.3376 29.7233 33.872 31.3576 33.6704Z" fill="#D0103A"/>
</svg>
