<svg width="47" height="46" viewBox="0 0 47 46" fill="none" xmlns="http://www.w3.org/2000/svg">
<path fill-rule="evenodd" clip-rule="evenodd" d="M23.5007 42.1668C34.0861 42.1668 42.6673 33.5856 42.6673 23.0002C42.6673 12.4147 34.0861 3.8335 23.5007 3.8335C12.9152 3.8335 4.33398 12.4147 4.33398 23.0002C4.33398 33.5856 12.9152 42.1668 23.5007 42.1668ZM23.5007 30.6668C27.7348 30.6668 31.1673 27.2343 31.1673 23.0002C31.1673 18.766 27.7348 15.3335 23.5007 15.3335C19.2665 15.3335 15.834 18.766 15.834 23.0002C15.834 27.2343 19.2665 30.6668 23.5007 30.6668Z" fill="#FCD331"/>
<path d="M11.0019 37.5318L19.1913 29.3423C18.3927 28.7987 17.702 28.1081 17.1583 27.3095L8.96895 35.4989C9.595 36.2261 10.2747 36.9057 11.0019 37.5318Z" fill="#D0103A"/>
<path d="M8.96875 10.5017L17.1581 18.6911C17.7018 17.8924 18.3924 17.2018 19.1911 16.6581L11.0017 8.46875C10.2745 9.09479 9.59479 9.77448 8.96875 10.5017Z" fill="#D0103A"/>
<path d="M27.8095 16.6583L35.9989 8.46895C36.7261 9.095 37.4057 9.7747 38.0318 10.5019L29.8423 18.6913C29.2987 17.8927 28.6081 17.202 27.8095 16.6583Z" fill="#D0103A"/>
<path d="M38.0316 35.4986L29.8422 27.3092C29.2985 28.1079 28.6079 28.7985 27.8092 29.3422L35.9986 37.5316C36.7258 36.9055 37.4055 36.2258 38.0316 35.4986Z" fill="#D0103A"/>
</svg>
