<svg width="47" height="46" viewBox="0 0 47 46" fill="none" xmlns="http://www.w3.org/2000/svg">
<path d="M12 8.62516C12 6.83382 12 5.93814 12.3852 5.271C12.6375 4.83394 13.0004 4.47101 13.4375 4.21867C14.1046 3.8335 15.0003 3.8335 16.7917 3.8335H30.2083C31.9997 3.8335 32.8954 3.8335 33.5625 4.21867C33.9996 4.47101 34.3625 4.83394 34.6148 5.271C35 5.93814 35 6.83382 35 8.62516C35 10.4165 35 11.3122 34.6148 11.9793C34.3625 12.4164 33.9996 12.7793 33.5625 13.0317C32.8954 13.4168 31.9997 13.4168 30.2083 13.4168H16.7917C15.0003 13.4168 14.1046 13.4168 13.4375 13.0317C13.0004 12.7793 12.6375 12.4164 12.3852 11.9793C12 11.3122 12 10.4165 12 8.62516Z" fill="#FCD331"/>
<path d="M19.666 30.6668V38.3335C19.666 40.1405 19.666 41.0441 20.2274 41.6055C20.7888 42.1668 21.6923 42.1668 23.4993 42.1668C25.3064 42.1668 26.2099 42.1668 26.7713 41.6055C27.3327 41.0441 27.3327 40.1405 27.3327 38.3335V30.6668C27.3327 28.8598 27.3327 27.9563 26.7713 27.3949C26.2099 26.8335 25.3064 26.8335 23.4993 26.8335C21.6923 26.8335 20.7888 26.8335 20.2274 27.3949C19.666 27.9563 19.666 28.8598 19.666 30.6668Z" fill="#FCD331"/>
<path d="M37.0035 10.0625C37.8749 10.0625 38.4598 10.0632 38.9131 10.0928C39.3543 10.1215 39.5699 10.1732 39.7118 10.2291C40.3303 10.4726 40.8199 10.9621 41.0634 11.5807C41.1192 11.7225 41.1709 11.9381 41.1997 12.3793C41.2292 12.8327 41.2299 13.4175 41.2299 14.2889C41.2299 15.8938 41.2096 16.3335 41.0932 16.6633C40.8933 17.2293 40.4883 17.6996 39.9583 17.9812C39.6494 18.1453 39.2176 18.2306 37.6304 18.4686L29.7273 19.6541C28.2464 19.8762 27.0032 20.0626 26.0209 20.3388C24.98 20.6315 24.059 21.0686 23.3402 21.9034C22.2269 23.1961 22.1048 24.8758 22.0725 26.8093C22.0722 26.8228 22.0722 26.8363 22.0724 26.8497C22.4737 26.8333 22.9443 26.8333 23.5004 26.8333C24.0652 26.8333 24.5418 26.8333 24.9472 26.8505C24.9816 24.8136 25.1711 24.183 25.5187 23.7795C25.7285 23.5359 26.0505 23.317 26.7991 23.1065C27.5867 22.8851 28.6492 22.723 30.2434 22.4839L38.2853 21.2777C39.5326 21.0917 40.504 20.9468 41.3073 20.52C42.4733 19.9005 43.3643 18.8658 43.804 17.6208C44.107 16.7631 44.1061 15.7809 44.1051 14.5199L44.1049 14.2427C44.1049 13.4294 44.105 12.7503 44.0686 12.1923C44.0307 11.6116 43.9492 11.0625 43.7385 10.5274C43.2028 9.16667 42.1258 8.08966 40.765 7.55392C40.23 7.34328 39.6808 7.26171 39.1001 7.22386C38.5421 7.18748 37.8631 7.18749 37.0497 7.1875H35.0008V10.0625H37.0035Z" fill="#D0103A"/>
<path fill-rule="evenodd" clip-rule="evenodd" d="M9.60352 8.625C9.60352 7.83109 10.2471 7.1875 11.041 7.1875H11.9993V10.0625H11.041C10.2471 10.0625 9.60352 9.41891 9.60352 8.625Z" fill="#D0103A"/>
</svg>
