<svg width="47" height="46" viewBox="0 0 47 46" fill="none" xmlns="http://www.w3.org/2000/svg">
<path d="M23.5007 28.7502C26.6763 28.7502 29.2507 26.1758 29.2507 23.0002C29.2507 19.8245 26.6763 17.2502 23.5007 17.2502C20.325 17.2502 17.7507 19.8245 17.7507 23.0002C17.7507 26.1758 20.325 28.7502 23.5007 28.7502Z" fill="#FCD331"/>
<path fill-rule="evenodd" clip-rule="evenodd" d="M42.6673 23.0002C42.6673 33.5856 34.0861 42.1668 23.5007 42.1668C12.9152 42.1668 4.33398 33.5856 4.33398 23.0002C4.33398 12.4147 12.9152 3.8335 23.5007 3.8335C34.0861 3.8335 42.6673 12.4147 42.6673 23.0002ZM23.5007 34.5002C29.8519 34.5002 35.0007 29.3514 35.0007 23.0002C35.0007 16.6489 29.8519 11.5002 23.5007 11.5002C17.1494 11.5002 12.0007 16.6489 12.0007 23.0002C12.0007 29.3514 17.1494 34.5002 23.5007 34.5002ZM29.2507 23.0002C29.2507 26.1758 26.6763 28.7502 23.5007 28.7502C20.325 28.7502 17.7507 26.1758 17.7507 23.0002C17.7507 19.8245 20.325 17.2502 23.5007 17.2502C26.6763 17.2502 29.2507 19.8245 29.2507 23.0002Z" fill="#FCD331"/>
<path d="M19.0383 33.6015L21.9603 28.5406C21.0086 28.2768 20.1561 27.7743 19.4712 27.1017L16.5497 32.162C17.3107 32.74 18.1458 33.2255 19.0383 33.6015Z" fill="#D0103A"/>
<path d="M12.0889 24.4362H17.9311C17.8129 23.9769 17.75 23.4953 17.75 22.9991C17.75 22.5026 17.8129 22.0208 17.9312 21.5612H12.089C12.0303 22.0323 12 22.5121 12 22.9991C12 23.4858 12.0302 23.9654 12.0889 24.4362Z" fill="#D0103A"/>
<path d="M16.5499 13.8361L19.4714 18.8963C20.1563 18.2237 21.0088 17.7213 21.9605 17.4575L19.0386 12.3965C18.146 12.7726 17.3109 13.258 16.5499 13.8361Z" fill="#D0103A"/>
<path d="M25.0394 17.4575L27.9613 12.3965C28.8539 12.7725 29.689 13.2579 30.45 13.836L27.5285 18.8962C26.8436 18.2236 25.9911 17.7213 25.0394 17.4575Z" fill="#D0103A"/>
<path d="M29.0689 24.4362C29.1871 23.9769 29.25 23.4953 29.25 22.9991C29.25 22.5026 29.1871 22.0208 29.0688 21.5612H34.911C34.9697 22.0323 35 22.5121 35 22.9991C35 23.4858 34.9698 23.9654 34.9111 24.4362H29.0689Z" fill="#D0103A"/>
<path d="M25.0399 28.5406C25.9916 28.2767 26.8441 27.7742 27.5289 27.1016L30.4504 32.1619C29.6895 32.74 28.8544 33.2254 27.9618 33.6015L25.0399 28.5406Z" fill="#D0103A"/>
</svg>
