<svg width="54" height="55" viewBox="0 0 54 55" fill="none" xmlns="http://www.w3.org/2000/svg">
<g id="sous 48h" clip-path="url(#clip0_497_884)">
<g id="Vector">
<path fill-rule="evenodd" clip-rule="evenodd" d="M25.0659 10.0293C25.5465 10.0293 26.0049 10.2311 26.3289 10.5852L27.9937 12.405C28.6303 13.1009 28.581 14.18 27.8834 14.8152C27.534 15.1334 27.0882 15.2798 26.6502 15.2593C25.8992 20.3137 21.8628 24.36 16.742 24.36C13.8909 24.36 11.3441 23.0813 9.54225 21.083C8.91063 20.3825 8.96777 19.3038 9.66988 18.6737C10.372 18.0435 11.4532 18.1005 12.0848 18.801C13.3021 20.1511 14.9525 20.948 16.742 20.948C19.7648 20.948 22.4876 18.6032 23.1842 15.2475C22.8468 15.2048 22.5187 15.0614 22.2484 14.8152C21.5508 14.18 21.5014 13.1009 22.1381 12.405L23.8029 10.5852C24.1269 10.2311 24.5853 10.0293 25.0659 10.0293Z" fill="#D0103A"/>
</g>
<g id="Vector_2">
<path d="M16.1986 2.75C11.0779 2.75 7.04148 6.79632 6.29044 11.8508C5.85247 11.8302 5.40667 11.9766 5.05724 12.2948C4.3597 12.93 4.31033 14.0091 4.94699 14.705L6.61176 16.5248C6.93575 16.879 7.39417 17.0807 7.87478 17.0807C8.35539 17.0807 8.81381 16.879 9.13781 16.5248L10.8026 14.705C11.4392 14.0091 11.3899 12.93 10.6923 12.2948C10.422 12.0486 10.0939 11.9053 9.75646 11.8625C10.453 8.50686 13.1758 6.16208 16.1986 6.16208C18.1196 6.16208 19.8845 7.08179 21.1205 8.61985C21.7112 9.35498 22.7874 9.47313 23.5243 8.88376C24.2611 8.29438 24.3795 7.22066 23.7888 6.48553C21.9737 4.22677 19.2642 2.75 16.1986 2.75Z" fill="#D0103A"/>
</g>
<path id="Vector_3" d="M47.2515 27.2039V36.3028C47.2515 44.8813 47.2515 49.1705 44.5803 51.8355C41.9091 54.5005 37.6099 54.5005 29.0115 54.5005C20.4131 54.5005 16.1139 54.5005 13.4427 51.8355C10.7715 49.1705 10.7715 44.8813 10.7715 36.3028V32.4054C10.7715 31.8012 10.7715 31.4991 10.8286 31.2493C11.0235 30.3974 11.6903 29.7322 12.5441 29.5378C12.7946 29.4807 13.0977 29.4807 13.704 29.4807C17.3346 29.4807 19.1499 29.4807 20.6499 29.1398C25.7776 27.9744 29.7817 23.9796 30.9498 18.8638C31.2915 17.3673 31.2915 15.5583 31.2915 11.9402C31.2915 11.34 31.2915 11.04 31.3499 10.7875C31.5474 9.93371 32.2442 9.25249 33.1038 9.07275C33.358 9.01959 33.6493 9.02548 34.2318 9.03726C39.4771 9.14334 42.5152 9.61084 44.5803 11.6711C47.2515 14.3361 47.2515 18.6254 47.2515 27.2039Z" fill="#FCD331"/>
<g id="Vector_4">
<path d="M20.4609 47.6758C20.4609 46.7335 21.2265 45.9697 22.1709 45.9697H35.8509C36.7953 45.9697 37.5609 46.7335 37.5609 47.6758C37.5609 48.618 36.7953 49.3818 35.8509 49.3818H22.1709C21.2265 49.3818 20.4609 48.618 20.4609 47.6758Z" fill="#D0103A"/>
</g>
</g>
<defs>
<clipPath id="clip0_497_884">
<rect width="54" height="54" fill="white" transform="translate(0 0.5)"/>
</clipPath>
</defs>
</svg>
