<?xml version="1.0" encoding="utf-8"?>
<!-- Generator: Adobe Illustrator 24.3.0, SVG Export Plug-In . SVG Version: 6.00 Build 0)  -->
<svg version="1.1" id="Calque_1" xmlns="http://www.w3.org/2000/svg" xmlns:xlink="http://www.w3.org/1999/xlink" x="0px" y="0px"
	 viewBox="0 0 157 102" style="enable-background:new 0 0 157 102;" xml:space="preserve">
<style type="text/css">
	.st0{fill:#D0103B;}
	.st1{fill:#FECB05;}
</style>
<path class="st0" d="M61.6,54.8c-0.2,1-0.8,2-1.5,2.7c-1,0.9-2.2,1.5-3.5,1.8c-0.7,0.1-1.3,0.2-2,0.2c-5.3,0-8-3.7-8-8.7
	s2.6-8.9,7.9-8.9c1.5-0.1,3,0.3,4.4,1c1.1,0.7,2,1.6,2.7,2.6l3.5-1.7c-2.2-3.3-5.6-4.6-10-4.6c-7.7,0-12.5,4.3-12.5,11.5
	c0,6.9,4.2,11.4,12.1,11.4c5.3,0,10.6-2.2,11.2-7.4L61.6,54.8z"/>
<path class="st0" d="M77.6,62.5c-6.5,0-10.1-3.1-10.1-8.7s3.7-8.7,10.1-8.7s10.1,3.1,10.1,8.7S84.1,62.5,77.6,62.5z M77.6,47.5
	c-4,0-6.6,2.5-6.6,6.3s2.6,6.3,6.6,6.3s6.6-2.5,6.6-6.3S81.6,47.5,77.6,47.5z"/>
<path class="st0" d="M95.1,61.9h-3.3V48h-4.2v-2.3h4.2v-0.8c0-4.4,1.8-6.3,5.9-6.3c1,0,1.9,0.1,2.9,0.2h0.1V41h-0.1
	c-0.7-0.1-1.3-0.2-2-0.2c-2.4,0-3.4,1-3.4,3.5v1.3h5.1V48h-5.2V61.9z"/>
<path class="st0" d="M135,42.1h-3.3v-3.4h3.3V42.1z"/>
<path class="st0" d="M135,61.9h-3.3V47.2l3.2-1.5h0.1V61.9z"/>
<path class="st0" d="M106.4,42.1H103v-3.4h3.3L106.4,42.1L106.4,42.1z"/>
<path class="st0" d="M106.4,61.9H103V47.2l3.3-1.6L106.4,61.9L106.4,61.9z"/>
<path class="st0" d="M146.1,62.5c-4.1,0-6.9-1.3-7.9-3.7v-0.1l3.2-1.5v0.1c0.3,1.8,2,2.8,5,2.8c3.3,0,5.1-1,5.1-2.7
	c0-1.5-2.4-1.9-5.1-2.3c-3.7-0.6-7.8-1.2-7.8-4.9c0-3.2,2.9-5.1,7.9-5.1c2.7,0,6.2,0.5,7.4,3l0.1,0.1l-3,1.4v-0.1
	c-0.5-1.4-1.9-2-4.4-2c-2.8,0-4.7,0.9-4.7,2.3c0,1.1,1,1.7,3.3,2.2l5.3,1c3.1,0.6,4.5,1.9,4.5,4.3C155.1,60.8,152.1,62.5,146.1,62.5
	L146.1,62.5z"/>
<path class="st0" d="M118,62.5c-4.8,0.2-8.8-3.6-9-8.4s3.6-8.8,8.4-9c0.2,0,0.4,0,0.6,0c2.6-0.1,5,0.8,6.9,2.5v-7.5l3.2-1.5h0.1V58
	c0,1,0.1,2.3,0.1,3.8v0.1H125v-0.1c-0.1-0.6-0.1-1.3-0.1-2C123.1,61.6,120.6,62.5,118,62.5z M118.7,47.5c-3.8,0-6.2,2.5-6.2,6.3
	s2.4,6.3,6.2,6.3s6.2-2.5,6.2-6.3S122.5,47.5,118.7,47.5z"/>
<path class="st0" d="M65.2,34c-0.2-0.2,0.1-1.5,0.5-2.7c2.2-6.8,13.4-18.8,15.1-19.6c0.8-0.4-2.8,5.7-6.4,12.2
	C72.4,27.5,65.6,34.3,65.2,34L65.2,34z"/>
<path class="st1" d="M54.5,102c-0.2,0.2-0.6-1.2-0.8-2.2C52,88.9,51.3,73.3,54.3,69c0-0.1,0.1-0.1,0.1-0.2c0.2-0.1,0.4-0.2,0.5-0.1
	c0.2,0.1,1.2,0.6,1.8,7.2c0.3,3.3,0.2,6.7-0.1,10C56.2,91.9,55.3,101.4,54.5,102z"/>
<path class="st1" d="M18.6,70.9c-0.4,0,0.3-0.7,0.3-0.7c7.2-6.6,13.5-9.1,16.9-9.1c0.2,0,0.5,0,0.7,0.1c0.2,0,0.5,0.2,0.6,0.3
	c0.2,0.1,0.4,0.3,0.4,0.5c0,0.4,1.1,1.2-6.9,5C28.1,68.3,19.5,70.9,18.6,70.9z"/>
<path class="st1" d="M40.6,41.8L40.6,41.8c-7.4-0.6-15.4-10.2-20.2-15.9c-1.2-1.5-3.2-3.7-3.1-4c0-0.1,0.2-0.1,0.5-0.1
	c1.3,0.3,9.3,4.4,14,8.2C32,30.1,43,39.1,42.2,41.3c-0.1,0.2-0.3,0.5-0.9,0.5L40.6,41.8L40.6,41.8z"/>
<path class="st1" d="M24.3,53.8c-2.4,0-7-0.3-9.2-0.3c-4.2-0.1-15.6-1.1-15-1.8s11.8-3.1,21.8-3.1c3.6,0,7.2,0.1,10.7,0.5
	c4.7,0.5,5.7,1.5,5.8,1.8c0.1,0.2,0.1,0.3,0.1,0.5c-0.2,0.5-1,0.9-1.1,0.9C34.7,53.2,30.5,53.8,24.3,53.8L24.3,53.8z"/>
<path class="st1" d="M74.3,85.2c-3.3-2.7-11-13.9-12.2-19c-0.2-0.8,0.1-1,0.2-1.1c0.1-0.1,0.2-0.2,0.4-0.2l0,0c0.2,0,0.6,0,3,2.7
	c2.9,3.4,5.5,7.2,7.5,11.3c1.2,2.3,3.2,6.7,2.9,7.6C76,86.7,74.3,85.2,74.3,85.2z"/>
<path class="st1" d="M57.2,35L57.2,35c-0.1,0-0.2-0.1-0.3-0.1c-0.2-0.2-0.5-0.4-0.4-4.5c0.1-9.3,4.7-22,5.8-23.3
	c0.1-0.2,0.2-0.3,0.3-0.3s0.2,0.2,0.3,0.5c0.9,12.9-2.1,23.7-4.6,27C57.9,34.9,57.6,35.1,57.2,35L57.2,35z"/>
<path class="st1" d="M46.2,34.2L46,34.1c-0.2-0.1-4.3-2.3-9-13.3c-2.2-5-4-10.1-5.5-15.3c-0.9-3.2-1.3-5.1-0.9-5.5
	c0.1-0.1,0.5,0.3,0.5,0.4c0.4,0.5,1.8,1.9,9,14.9c6,10.9,7.3,16.1,7.2,17.2s-1.1,1.5-1.1,1.6L46.2,34.2L46.2,34.2z"/>
<path class="st1" d="M28.5,85.9c3.2-5.2,5-10.4,11.3-17.5c3.1-3.5,5.8-4.3,6.3-4.2c0.1,0,0.2,0,0.3,0.1c0.6,0.4,0.3,1.5,0.3,1.7
	c-2.1,6.1-7.7,13.8-11.2,17.9c-4.8,5.8-11.2,11.7-11.4,11S26.6,88.8,28.5,85.9z"/>
</svg>
