<svg width="25" height="24" viewBox="0 0 25 24" fill="none" xmlns="http://www.w3.org/2000/svg">
<path d="M12.3921 3.5V2" stroke="#0F0F0F" stroke-width="1.5" stroke-linecap="round" stroke-linejoin="round"/>
<path d="M12.3921 3.5C11.4528 3.5 7.92 7.29323 7.36391 12.2037M12.3921 3.5C13.3313 3.5 16.8642 7.29322 17.4203 12.2037M12.3921 3.5C17.3288 3.5 21.4466 6.93552 22.3921 11.5C21.0044 12.7 18.4994 12.4691 17.4203 12.2037M12.3921 3.5C7.45542 3.5 3.33754 6.93552 2.39209 11.5C3.78001 12.7 6.28494 12.4691 7.36391 12.2037M7.36391 12.2037C8.84799 13.0288 10.5639 13.5 12.3921 13.5C14.2203 13.5 15.9362 13.0288 17.4203 12.2037" stroke="#0F0F0F" stroke-width="1.5" stroke-linecap="round" stroke-linejoin="round"/>
<path d="M12.3921 13.5V20.5C12.3921 21.3284 11.7205 22 10.8921 22C10.0637 22 9.39209 21.3284 9.39209 20.5V20" stroke="#0F0F0F" stroke-width="1.5" stroke-linecap="round" stroke-linejoin="round"/>
</svg>
