<svg width="25" height="24" viewBox="0 0 25 24" fill="none" xmlns="http://www.w3.org/2000/svg">
<path d="M13.273 7.01656L18.0459 8.28825M12.2499 10.8134L14.6363 11.4492M12.3686 17.9664L13.3231 18.2208C16.0231 18.9401 17.3731 19.2998 18.4366 18.6893C19.5001 18.0787 19.8619 16.7363 20.5853 14.0516L21.6084 10.2548C22.3319 7.57005 22.6936 6.22768 22.0796 5.17016C21.4656 4.11264 20.1156 3.75295 17.4156 3.03358L16.461 2.77924C13.7611 2.05986 12.4111 1.70018 11.3476 2.31074C10.284 2.9213 9.92232 4.26367 9.19887 6.94841L8.17575 10.7452C7.45229 13.4299 7.09057 14.7723 7.70459 15.8298C8.31861 16.8874 9.6686 17.2471 12.3686 17.9664Z" stroke="#D0103A" stroke-width="1.5" stroke-linecap="round"/>
<path d="M12.3921 20.9461L11.4397 21.2054C8.74612 21.9389 7.39931 22.3056 6.33828 21.6831C5.27726 21.0605 4.91638 19.6918 4.19462 16.9544L3.17391 13.0832C2.45215 10.3458 2.09127 8.97706 2.70386 7.89879C3.23376 6.96607 4.39209 7.00002 5.89209 6.99991" stroke="#D0103A" stroke-width="1.5" stroke-linecap="round"/>
</svg>
